<?xml version="1.0" standalone="no"?>
<!DOCTYPE svg PUBLIC "-//W3C//DTD SVG 20010904//EN"
 "http://www.w3.org/TR/2001/REC-SVG-20010904/DTD/svg10.dtd">
<svg version="1.0" xmlns="http://www.w3.org/2000/svg"
 width="512.000000pt" height="512.000000pt" viewBox="0 0 512.000000 512.000000"
 preserveAspectRatio="xMidYMid meet">

<g transform="translate(0.000000,512.000000) scale(0.100000,-0.100000)"
fill="black" stroke="none">
<path d="M3253 5029 c-92 -15 -174 -57 -338 -171 -1018 -705 -1879 -1558
-2591 -2565 -163 -230 -193 -280 -221 -362 -28 -81 -30 -202 -7 -282 53 -179
271 -489 541 -769 309 -321 675 -599 997 -757 76 -37 98 -44 134 -40 73 8 131
83 117 151 -6 24 -116 140 -490 516 -265 267 -488 496 -495 509 -7 13 -12 46
-12 72 0 113 112 189 216 145 20 -8 223 -203 508 -484 342 -339 483 -473 504
-477 16 -4 34 -8 40 -10 30 -9 96 20 128 55 44 49 54 103 29 159 -12 27 -169
193 -485 514 -510 518 -505 512 -479 596 25 84 110 133 194 110 45 -12 32 1
707 -665 224 -221 304 -294 333 -303 73 -24 156 10 192 80 18 33 20 101 4 132
-6 12 -222 233 -480 492 -472 473 -499 505 -499 572 1 46 35 108 72 131 39 24
108 29 154 12 15 -6 165 -147 333 -313 643 -634 653 -645 694 -652 60 -11 107
3 148 44 41 41 55 88 44 149 -6 32 -66 97 -490 522 -522 524 -507 505 -492
596 16 95 127 152 219 111 15 -7 237 -218 493 -470 256 -252 480 -467 498
-477 119 -73 270 52 227 187 -10 30 -115 141 -493 520 l-481 482 -4 60 c-4 50
0 66 18 97 25 39 86 73 133 74 67 0 99 -28 572 -500 318 -317 479 -471 498
-475 15 -4 51 -5 79 -3 44 5 57 11 89 46 21 22 40 55 44 74 16 84 19 80 -489
595 -410 415 -476 486 -486 521 -31 117 78 226 193 193 46 -14 21 9 655 -614
378 -371 385 -377 468 -361 41 8 88 44 109 85 18 33 19 96 4 136 -5 15 -223
242 -484 503 -261 261 -479 488 -485 503 -24 66 5 150 64 187 49 29 122 30
168 2 18 -12 245 -233 503 -492 326 -326 480 -473 503 -481 73 -24 162 44 162
125 0 91 -204 435 -414 696 -394 492 -933 928 -1196 970 -74 11 -104 11 -177
-1z"/>
</g>
</svg>
