<?xml version="1.0" encoding="iso-8859-1"?>
<!-- Uploaded to: SVG Repo, www.svgrepo.com, Generator: SVG Repo Mixer Tools -->
<svg fill="#000000" height="800px" width="800px" version="1.1" id="Layer_1" xmlns="http://www.w3.org/2000/svg" xmlns:xlink="http://www.w3.org/1999/xlink" 
	 viewBox="0 0 512 512" xml:space="preserve">
<g>
	<g>
		<path d="M373.029,175.543h-29.257v-43.886c0-40.897-27.973-75.263-65.829-85.005V0h-43.886v46.652
			c-37.856,9.743-65.829,44.108-65.829,85.005v43.886h-29.257v43.886h29.257L153.6,512h204.8l-14.629-292.571h29.257V175.543z
			 M212.114,131.657c0-24.197,19.687-43.886,43.886-43.886s43.886,19.689,43.886,43.886v43.886h-87.771V131.657z M212.114,219.429
			h87.771l5.511,111.3l-100.71,38.366L212.114,219.429z M199.736,468.114l2.557-51.146L307.7,376.814l4.566,91.3H199.736z"/>
	</g>
</g>
<g>
	<g>
		<polygon points="59.642,62.736 40.015,101.987 84.726,124.343 40.937,146.239 60.564,185.49 138.971,146.286 138.971,102.4 		"/>
	</g>
</g>
<g>
	<g>
		<polygon points="471.985,101.987 452.358,62.736 373.029,102.4 373.029,146.286 451.438,185.49 471.063,146.239 427.274,124.343 
					"/>
	</g>
</g>
</svg>