<?xml version="1.0" encoding="utf-8"?>
<svg xmlns="http://www.w3.org/2000/svg" viewBox="0 0 500 500" xmlns:bx="https://boxy-svg.com" width="500px" height="500px"><defs><bx:export><bx:file format="svg" path="favicon.svg"/></bx:export></defs><text style="white-space: pre; fill: rgb(200,200,200); font-family: Arial, sans-serif; font-size: 28px;" x="500" y="169.877"> </text><path d="M 196.758 32.673 L 196.758 71.2 L 200.4 78.503 L 200.4 435.843 C 200.4 442.486 201.453 447.41 203.56 450.615 C 205.667 453.823 208.712 455.984 212.698 457.096 L 232.281 460.417 C 236.709 461.748 239.923 463.519 241.923 465.733 C 243.909 467.947 244.9 470.71 244.9 474.023 C 244.9 478.009 243.467 481.169 240.596 483.504 C 237.71 485.826 233.281 486.986 227.312 486.986 L 94.473 486.986 C 88.715 486.986 84.447 485.826 81.67 483.504 C 78.906 481.169 77.523 478.009 77.523 474.023 C 77.523 470.924 78.524 468.265 80.524 466.052 C 82.509 463.837 85.495 462.068 89.478 460.739 L 103.427 457.096 C 107.641 455.984 110.793 453.875 112.886 450.775 C 114.994 447.676 116.047 442.806 116.047 436.164 L 116.047 85.467 C 116.047 80.154 115.216 76.284 113.55 73.856 C 111.9 71.411 109.083 69.862 105.101 69.205 L 85.495 68.197 C 81.509 67.312 78.683 65.929 77.019 64.054 C 75.372 62.175 74.546 59.792 74.546 56.906 C 74.546 53.595 75.591 50.935 77.684 48.935 C 79.791 46.952 83.617 44.85 89.156 42.637 L 143.942 21.04 C 151.7 17.942 158.065 15.787 163.046 14.581 C 168.024 13.358 172.398 12.75 176.169 12.75 C 183.254 12.75 188.451 14.573 191.766 18.223 C 195.093 21.871 196.758 26.691 196.758 32.673 Z M 182.147 115.035 L 168.519 96.438 C 186.017 69.428 206.217 48.394 229.12 33.338 C 252.038 18.285 277.226 10.756 304.68 10.756 C 330.803 10.756 354.219 17.451 374.923 30.842 C 395.628 44.234 411.897 62.723 423.731 86.315 C 435.579 109.889 441.502 136.953 441.502 167.508 C 441.502 202.701 434.471 233.256 420.41 259.165 C 406.362 285.063 387.382 305.043 363.473 319.105 C 339.561 333.167 312.88 340.198 283.423 340.198 C 257.087 340.198 233.563 333.884 212.859 321.256 C 192.155 308.646 175.274 290.384 162.22 266.472 L 182.809 247.876 C 194.093 266.915 207.042 281.193 221.654 290.705 C 236.267 300.232 251.985 304.995 268.813 304.995 C 284.982 304.995 299.426 300.401 312.145 291.206 C 324.88 282.016 334.904 267.9 342.217 248.861 C 349.516 229.82 353.166 205.803 353.166 176.806 C 353.166 149.353 349.623 126.602 342.538 108.554 C 335.454 90.506 325.714 76.946 313.313 67.878 C 300.917 58.791 286.745 54.251 270.805 54.251 C 253.979 54.251 238.093 59.236 223.143 69.205 C 208.211 79.16 194.543 94.438 182.147 115.035 Z" style="fill: rgb(51, 51, 51); text-wrap-mode: nowrap;"/><text style="white-space: pre; fill: rgb(51, 51, 51); font-family: Arial, sans-serif; font-size: 28px;" x="636.286" y="130.306"> </text></svg>