<?xml version="1.0" encoding="iso-8859-1"?>
<!-- Uploaded to: SVG Repo, www.svgrepo.com, Generator: SVG Repo Mixer Tools -->
<svg fill="#000000" height="800px" width="800px" version="1.1" id="Layer_1" xmlns="http://www.w3.org/2000/svg" xmlns:xlink="http://www.w3.org/1999/xlink" 
	 viewBox="0 0 512 512" xml:space="preserve">
<g>
	<g>
		<path d="M383.413,205.038l-45.566,22.783c8.764-55.753,12.494-139.057-16.302-177.454C285.851,2.776,257.693,0,202.963,0
			c0.794,20.622-3.173,31.728-3.173,31.728s-15.07-5.553-28.553-7.932c7.644,21.403,2.734,69.896-13.53,79.54
			c-16.264,9.643-48.155,29.817-48.155,29.817l18.79,30.348c0,0,37.84-23.362,38.136-23.502c6.742-3.195,10.862-4.391,14.577-4.391
			c6.409,0,11.625,3.56,27.065,6.572c25.141,4.905,32.52,5.751,32.52,5.751s-8.726,8.328-27.762,34.901
			c-13.84,19.317-24.588,50.687-24.588,79.318c0,71.387,57.425,100.778,78.129,127.306c25.382,32.52,19.829,82.491-27.762,82.491
			c-5.153-0.414-9.729-1.428-13.768-2.927c-0.501-0.226-1.002-0.456-1.497-0.703c-6.96-3.48-12.148-9.461-14.608-16.844
			c-2.46-7.381-1.9-15.279,1.58-22.239c3.371-6.741,10.138-10.917,17.678-10.917c0.031,0,0.062,0,0.094,0.001l0.163-35.693
			c-0.088,0-0.174-0.001-0.262-0.001c-21.148,0-40.137,11.726-49.598,30.649c-7.743,15.487-8.992,33.063-3.517,49.489
			c3.303,9.908,8.826,18.67,16.079,25.773c0.023,0.023,0.043,0.046,0.065,0.069c0.027,0.026,0.055,0.051,0.082,0.077
			c0.412,0.4,0.827,0.795,1.249,1.185c13.761,13.047,32.32,22.136,55.38,22.136c59.489,0,95.182-47.591,95.182-95.182
			c0-38.233-15.343-84.142-15.214-125.395l55.666,27.834c0,0,19.036-15.675,19.036-57.109
			C402.448,220.713,383.413,205.038,383.413,205.038z M214.955,107.145c-5.596-1.041-9.243-2.238-12.781-3.349
			c-0.464-0.145-0.938-0.294-1.419-0.444c4.252-10.154,6.658-20.901,8.01-30.28l12.514,4.61l12.125-33.95
			c0.458-1.283,1.231-3.657,2.049-7.089c8.751,0.751,15.709,2.052,21.786,4.253c8.545,3.095,19.475,9.184,35.752,30.885
			c3.467,4.622,8.312,13.879,11.709,31.731c0.914,4.801,1.663,9.917,2.249,15.33C306.947,118.846,263.642,116.201,214.955,107.145z
			 M308.461,155.739c-0.564,38.9-6.831,76.97-12.025,97.75c-9.083,36.333-2.136,75.225,3.994,109.538
			c1.091,6.107,2.163,12.108,3.123,17.947c-2.644-4.685-5.65-9.196-8.996-13.483c-6.914-8.858-15.466-16.694-24.519-24.99
			c-11.624-10.65-23.642-21.662-32.511-35.077c-9.241-13.977-13.544-28.365-13.544-45.279c0-22.012,9.25-44.882,17.911-58.531
			c8.66-13.649,18.401-24.862,29.68-35.859c11.279-10.997,36.486-25.778,36.486-25.778S308.564,148.624,308.461,155.739z"/>
	</g>
</g>
</svg>